<svg id="svg2" width="1333.3333" height="1133.3333" viewBox="0 0 1333.3333 1133.3333" sodipodi:docname="Gold.ai" xmlns:inkscape="http://www.inkscape.org/namespaces/inkscape" xmlns:sodipodi="http://sodipodi.sourceforge.net/DTD/sodipodi-0.dtd" xmlns="http://www.w3.org/2000/svg" xmlns:svg="http://www.w3.org/2000/svg"><defs id="defs6"><linearGradient x1="0" y1="0" x2="1" y2="0" gradientUnits="userSpaceOnUse" gradientTransform="matrix(-292.70309,3.5436211,3.5436211,292.70309,869.86456,266.58997)" spreadMethod="pad" id="linearGradient32"><stop style="stop-opacity:1;stop-color:#e8c011" offset="0" id="stop22"/><stop style="stop-opacity:1;stop-color:#f7ea81" offset=".244693" id="stop24"/><stop style="stop-opacity:1;stop-color:#d6861b" offset=".486033" id="stop26"/><stop style="stop-opacity:1;stop-color:#fcf181" offset=".754191" id="stop28"/><stop style="stop-opacity:1;stop-color:#fcf181" offset="1" id="stop30"/></linearGradient><linearGradient x1="0" y1="0" x2="1" y2="0" gradientUnits="userSpaceOnUse" gradientTransform="matrix(97.700645,0,0,-97.700645,730.96576,296.06708)" spreadMethod="pad" id="linearGradient60"><stop style="stop-opacity:1;stop-color:#d58e14" offset="0" id="stop48"/><stop style="stop-opacity:1;stop-color:#edd159" offset=".235754" id="stop50"/><stop style="stop-opacity:1;stop-color:#fdefab" offset=".414525" id="stop52"/><stop style="stop-opacity:1;stop-color:#e7b85f" offset=".57542" id="stop54"/><stop style="stop-opacity:1;stop-color:#ffecab" offset=".763129" id="stop56"/><stop style="stop-opacity:1;stop-color:#cb8b1b" offset="1" id="stop58"/></linearGradient><linearGradient x1="0" y1="0" x2="1" y2="0" gradientUnits="userSpaceOnUse" gradientTransform="matrix(110.20196,0,0,-110.20196,704.58783,245.88191)" spreadMethod="pad" id="linearGradient88"><stop style="stop-opacity:1;stop-color:#d58e14" offset="0" id="stop76"/><stop style="stop-opacity:1;stop-color:#edd159" offset=".235754" id="stop78"/><stop style="stop-opacity:1;stop-color:#fdefab" offset=".414525" id="stop80"/><stop style="stop-opacity:1;stop-color:#e7b85f" offset=".57542" id="stop82"/><stop style="stop-opacity:1;stop-color:#ffecab" offset=".763129" id="stop84"/><stop style="stop-opacity:1;stop-color:#cb8b1b" offset="1" id="stop86"/></linearGradient><linearGradient x1="0" y1="0" x2="1" y2="0" gradientUnits="userSpaceOnUse" gradientTransform="matrix(379.43399,-63.580833,-63.580833,-379.43399,169.77193,276.97232)" spreadMethod="pad" id="linearGradient114"><stop style="stop-opacity:1;stop-color:#e8c011" offset="0" id="stop104"/><stop style="stop-opacity:1;stop-color:#f7ea81" offset=".244693" id="stop106"/><stop style="stop-opacity:1;stop-color:#d6861b" offset=".486033" id="stop108"/><stop style="stop-opacity:1;stop-color:#fcf181" offset=".754191" id="stop110"/><stop style="stop-opacity:1;stop-color:#fcf181" offset="1" id="stop112"/></linearGradient><linearGradient x1="0" y1="0" x2="1" y2="0" gradientUnits="userSpaceOnUse" gradientTransform="matrix(97.700691,0,0,-97.700691,171.33362,296.06705)" spreadMethod="pad" id="linearGradient142"><stop style="stop-opacity:1;stop-color:#d58e14" offset="0" id="stop130"/><stop style="stop-opacity:1;stop-color:#edd159" offset=".235754" id="stop132"/><stop style="stop-opacity:1;stop-color:#fdefab" offset=".414525" id="stop134"/><stop style="stop-opacity:1;stop-color:#e7b85f" offset=".57542" id="stop136"/><stop style="stop-opacity:1;stop-color:#ffecab" offset=".763129" id="stop138"/><stop style="stop-opacity:1;stop-color:#cb8b1b" offset="1" id="stop140"/></linearGradient><linearGradient x1="0" y1="0" x2="1" y2="0" gradientUnits="userSpaceOnUse" gradientTransform="matrix(110.20198,0,0,-110.20198,185.21024,245.88197)" spreadMethod="pad" id="linearGradient170"><stop style="stop-opacity:1;stop-color:#d58e14" offset="0" id="stop158"/><stop style="stop-opacity:1;stop-color:#edd159" offset=".235754" id="stop160"/><stop style="stop-opacity:1;stop-color:#fdefab" offset=".414525" id="stop162"/><stop style="stop-opacity:1;stop-color:#e7b85f" offset=".57542" id="stop164"/><stop style="stop-opacity:1;stop-color:#ffecab" offset=".763129" id="stop166"/><stop style="stop-opacity:1;stop-color:#cb8b1b" offset="1" id="stop168"/></linearGradient><linearGradient x1="0" y1="0" x2="1" y2="0" gradientUnits="userSpaceOnUse" gradientTransform="matrix(0,-517.74048,-517.74048,0,499.43576,684.28967)" spreadMethod="pad" id="linearGradient200"><stop style="stop-opacity:1;stop-color:#fbf278" offset="0" id="stop186"/><stop style="stop-opacity:1;stop-color:#fbf278" offset="28e-8" id="stop188"/><stop style="stop-opacity:1;stop-color:#fbcb40" offset=".191062" id="stop190"/><stop style="stop-opacity:1;stop-color:#fce385" offset=".38324" id="stop192"/><stop style="stop-opacity:1;stop-color:#fff9c0" offset=".553073" id="stop194"/><stop style="stop-opacity:1;stop-color:#db9620" offset=".713967" id="stop196"/><stop style="stop-opacity:1;stop-color:#b77f32" offset="1" id="stop198"/></linearGradient><linearGradient x1="0" y1="0" x2="1" y2="0" gradientUnits="userSpaceOnUse" gradientTransform="matrix(0,506.70804,506.70804,0,499.43576,170.81903)" spreadMethod="pad" id="linearGradient232"><stop style="stop-opacity:1;stop-color:#ffd247" offset="0" id="stop216"/><stop style="stop-opacity:1;stop-color:#fee69a" offset=".143017" id="stop218"/><stop style="stop-opacity:1;stop-color:#fdcb58" offset=".254749" id="stop220"/><stop style="stop-opacity:1;stop-color:#f4d896" offset=".392179" id="stop222"/><stop style="stop-opacity:1;stop-color:#d38822" offset=".548603" id="stop224"/><stop style="stop-opacity:1;stop-color:#fec338" offset=".705029" id="stop226"/><stop style="stop-opacity:1;stop-color:#de9623" offset=".865922" id="stop228"/><stop style="stop-opacity:1;stop-color:#ffc81b" offset="1" id="stop230"/></linearGradient><linearGradient x1="0" y1="0" x2="1" y2="0" gradientUnits="userSpaceOnUse" gradientTransform="matrix(0,-498.55753,-498.55753,0,499.43576,674.27875)" spreadMethod="pad" id="linearGradient262"><stop style="stop-opacity:1;stop-color:#fffab5" offset="0" id="stop248"/><stop style="stop-opacity:1;stop-color:#fffab5" offset="28e-8" id="stop250"/><stop style="stop-opacity:1;stop-color:#fbcb40" offset=".191062" id="stop252"/><stop style="stop-opacity:1;stop-color:#fce385" offset=".38324" id="stop254"/><stop style="stop-opacity:1;stop-color:#fff9c0" offset=".553073" id="stop256"/><stop style="stop-opacity:1;stop-color:#db9620" offset=".713967" id="stop258"/><stop style="stop-opacity:1;stop-color:#f7e75d" offset="1" id="stop260"/></linearGradient><linearGradient x1="0" y1="0" x2="1" y2="0" gradientUnits="userSpaceOnUse" gradientTransform="matrix(0,171.16019,171.16019,0,499.43576,209.09013)" spreadMethod="pad" id="linearGradient284"><stop style="stop-opacity:1;stop-color:#f2e6a5" offset="0" id="stop278"/><stop style="stop-opacity:1;stop-color:#f2e6a5" offset="28e-8" id="stop280"/><stop style="stop-opacity:1;stop-color:#915805" offset="1" id="stop282"/></linearGradient><clipPath clipPathUnits="userSpaceOnUse" id="clipPath294"><path d="M0 850H1e3V0H0z" id="path292"/></clipPath><linearGradient x1="0" y1="0" x2="1" y2="0" gradientUnits="userSpaceOnUse" gradientTransform="matrix(570.4798,-171.28551,-171.28551,-570.4798,338.49423,362.38834)" spreadMethod="pad" id="linearGradient414"><stop style="stop-opacity:1;stop-color:#e8c011" offset="0" id="stop404"/><stop style="stop-opacity:1;stop-color:#f7ea81" offset=".244693" id="stop406"/><stop style="stop-opacity:1;stop-color:#d6861b" offset=".486033" id="stop408"/><stop style="stop-opacity:1;stop-color:#fcf181" offset=".754191" id="stop410"/><stop style="stop-opacity:1;stop-color:#d28f0b" offset="1" id="stop412"/></linearGradient><linearGradient x1="0" y1="0" x2="1" y2="0" gradientUnits="userSpaceOnUse" gradientTransform="matrix(515.7511,0,0,-515.7511,243.68968,297.48233)" spreadMethod="pad" id="linearGradient436"><stop style="stop-opacity:1;stop-color:#915805" offset="0" id="stop430"/><stop style="stop-opacity:1;stop-color:#ba944b" offset=".509497" id="stop432"/><stop style="stop-opacity:1;stop-color:#915805" offset="1" id="stop434"/></linearGradient><linearGradient x1="0" y1="0" x2="1" y2="0" gradientUnits="userSpaceOnUse" gradientTransform="matrix(559.14203,0,0,-559.14203,220.34792,365.28613)" spreadMethod="pad" id="linearGradient464"><stop style="stop-opacity:1;stop-color:#d58e14" offset="0" id="stop452"/><stop style="stop-opacity:1;stop-color:#edd159" offset=".235754" id="stop454"/><stop style="stop-opacity:1;stop-color:#fdefab" offset=".414525" id="stop456"/><stop style="stop-opacity:1;stop-color:#e7b85f" offset=".57542" id="stop458"/><stop style="stop-opacity:1;stop-color:#ffecab" offset=".763129" id="stop460"/><stop style="stop-opacity:1;stop-color:#cb8b1b" offset="1" id="stop462"/></linearGradient><linearGradient x1="0" y1="0" x2="1" y2="0" gradientUnits="userSpaceOnUse" gradientTransform="matrix(489.49341,13.439847,13.439847,-489.49341,250.18741,296.60629)" spreadMethod="pad" id="linearGradient492"><stop style="stop-opacity:1;stop-color:#d58e14" offset="0" id="stop480"/><stop style="stop-opacity:1;stop-color:#edd159" offset=".235754" id="stop482"/><stop style="stop-opacity:1;stop-color:#fdefab" offset=".414525" id="stop484"/><stop style="stop-opacity:1;stop-color:#e7b85f" offset=".57542" id="stop486"/><stop style="stop-opacity:1;stop-color:#ffecab" offset=".763129" id="stop488"/><stop style="stop-opacity:1;stop-color:#cb8b1b" offset="1" id="stop490"/></linearGradient><clipPath clipPathUnits="userSpaceOnUse" id="clipPath502"><path d="M0 850H1e3V0H0z" id="path500"/></clipPath></defs><sodipodi:namedview id="namedview4" pagecolor="#ffffff" bordercolor="#666666" borderopacity="1" inkscape:pageshadow="2" inkscape:pageopacity="0" inkscape:pagecheckerboard="0"/><g id="g8" inkscape:groupmode="layer" inkscape:label="Gold" transform="matrix(1.3333333,0,0,-1.3333333,0,1133.3333)"><g id="g10"><g id="g12"><g id="g18"><g id="g20"><path d="m692.371 259.764c41.641-7.684 125.09-47.485 125.09-47.485v0l-13.466 50.674 31.893 23.034-103.12 37.207c-14.464-34.036-40.397-63.43-40.397-63.43" style="fill:url(#linearGradient32);stroke:none" id="path34"/></g></g></g></g><g id="g36"><g id="g38"><g id="g44"><g id="g46"><path d="m730.966 310.568 94.256-32.284 3.444 2.487-96.576 33.08z" style="fill:url(#linearGradient60);stroke:none" id="path62"/></g></g></g></g><g id="g64"><g id="g66"><g id="g72"><g id="g74"><path d="m704.587 266.041c32.555-6.964 109.443-43.349 110.203-43.71v0l-1.106 4.163c-3.118 1.482-75.418 35.89-108.37 42.939v0z" style="fill:url(#linearGradient88);stroke:none" id="path90"/></g></g></g></g><g id="g92"><g id="g94"><g id="g100"><g id="g102"><path d="m164.112 285.987 31.893-23.034-13.466-50.674s83.449 39.801 125.09 47.485v0s-25.934 29.394-40.397 63.43v0z" style="fill:url(#linearGradient114);stroke:none" id="path116"/></g></g></g></g><g id="g118"><g id="g120"><g id="g126"><g id="g128"><path d="m171.334 280.771 3.444-2.487 94.256 32.284-1.124 3.283z" style="fill:url(#linearGradient142);stroke:none" id="path144"/></g></g></g></g><g id="g146"><g id="g148"><g id="g154"><g id="g156"><path d="m186.316 226.494-1.106-4.163c.76.361 77.648 36.746 110.202 43.71v0l-.726 3.392c-32.953-7.049-105.252-41.456-108.37-42.939" style="fill:url(#linearGradient170);stroke:none" id="path172"/></g></g></g></g><g id="g174"><g id="g176"><g id="g182"><g id="g184"><path d="m238.109 425c0-144.327 116.999-261.327 261.327-261.327v0c144.327.0 261.327 117 261.327 261.327v0c0 144.327-117 261.327-261.327 261.327v0c-144.328.0-261.327-117-261.327-261.327" style="fill:url(#linearGradient200);stroke:none" id="path202"/></g></g></g></g><g id="g204"><g id="g206"><g id="g212"><g id="g214"><path d="m243.689 425c0-141.244 114.502-255.746 255.747-255.746v0c141.244.0 255.746 114.502 255.746 255.746v0c0 141.245-114.502 255.746-255.746 255.746v0c-141.245.0-255.747-114.501-255.747-255.746" style="fill:url(#linearGradient232);stroke:none" id="path234"/></g></g></g></g><g id="g236"><g id="g238"><g id="g244"><g id="g246"><path d="m250.157 425c0-137.673 111.606-249.279 249.279-249.279v0c137.672.0 249.278 111.606 249.278 249.279v0c0 137.673-111.606 249.279-249.278 249.279v0c-137.673.0-249.279-111.606-249.279-249.279" style="fill:url(#linearGradient262);stroke:none" id="path264"/></g></g></g></g><g id="g266"><g id="g268"><g id="g274"><g id="g276"><path d="m281.784 425c0-120.206 97.445-217.652 217.652-217.652v0c120.206.0 217.652 97.446 217.652 217.652v0c0 120.206-97.446 217.652-217.652 217.652v0c-120.207.0-217.652-97.446-217.652-217.652" style="fill:url(#linearGradient284);stroke:none" id="path286"/></g></g></g></g><g id="g288"><g id="g290" clip-path="url(#clipPath294)"><g id="g296" transform="translate(706.2798,425)"><path d="m0 0c0-114.237-92.607-206.844-206.844-206.844S-413.688-114.237-413.688.0s92.607 206.844 206.844 206.844C-92.607 206.844.0 114.237.0.0z" style="fill:none;stroke:#af7121;stroke-width:1;stroke-linecap:butt;stroke-linejoin:miter;stroke-miterlimit:10;stroke-dasharray:none;stroke-opacity:1" id="path298"/></g><g id="g300" transform="translate(499.4358,631.7234)"><path d="m0 0c114.221.0 206.723-92.553 206.723-206.723.0-114.171-92.502-206.724-206.723-206.724-114.221.0-206.723 92.553-206.723 206.724C-206.723-92.553-114.221.0.0.0" style="fill:#1a1918;fill-opacity:1;fill-rule:evenodd;stroke:none" id="path302"/></g><g id="g304" transform="translate(499.4358,631.6943)"><path d="m0 0c-113.972.0-206.694-92.723-206.694-206.694.0-113.972 92.722-206.695 206.694-206.695s206.694 92.723 206.694 206.695C206.694-92.723 113.972.0.0.0m0-413.447c-14.034.0-28.058 1.413-41.683 4.201-13.278 2.716-26.337 6.769-38.816 12.047-12.252 5.181-24.068 11.595-35.121 19.062-10.947 7.396-21.241 15.89-30.595 25.247-9.354 9.355-17.847 19.65-25.241 30.598-7.465 11.053-13.876 22.869-19.056 35.12-5.275 12.477-9.327 25.535-12.042 38.81-2.786 13.62-4.199 27.639-4.199 41.668.0 14.028 1.413 28.047 4.199 41.668 2.715 13.275 6.767 26.332 12.042 38.809 5.18 12.251 11.591 24.067 19.056 35.12 7.394 10.948 15.887 21.243 25.241 30.599 9.354 9.356 19.648 17.85 30.595 25.246 11.053 7.467 22.869 13.881 35.121 19.063 12.479 5.277 25.538 9.33 38.816 12.047 13.625 2.787 27.649 4.2 41.683 4.2 14.034.0 28.058-1.413 41.682-4.2 13.279-2.717 26.338-6.77 38.817-12.047 12.252-5.182 24.068-11.596 35.121-19.063 10.947-7.396 21.241-15.89 30.595-25.246s17.847-19.651 25.241-30.599c7.465-11.053 13.876-22.869 19.056-35.12 5.275-12.477 9.327-25.534 12.042-38.809 2.786-13.621 4.199-27.64 4.199-41.668.0-14.029-1.413-28.048-4.199-41.668-2.715-13.275-6.767-26.333-12.042-38.81-5.18-12.251-11.591-24.067-19.056-35.12-7.394-10.948-15.887-21.243-25.241-30.598-9.354-9.357-19.648-17.851-30.595-25.247-11.053-7.467-22.869-13.881-35.121-19.062-12.479-5.278-25.538-9.331-38.817-12.047-13.624-2.788-27.648-4.201-41.682-4.201" style="fill:#231f20;fill-opacity:1;fill-rule:nonzero;stroke:none" id="path306"/></g><g id="g308" transform="translate(361.1318,466.0319)"><path d="M0 0-.537-1.908-23.279-4.76c-3.133-.4-6.511-.731-10.136-.992l-.057-.203c4.799-1.095 9.166-2.196 13.101-3.303l16.461-4.633-1.167-4.148-34.042 9.582 1.683 5.979 21.515 2.593c2.463.296 5.402.557 8.816.786l.036.128c-3.099 2.19-5.47 3.946-7.111 5.269l-17.005 13.435 1.683 5.979L4.54 16.13 3.373 11.983-13.088 16.617c-3.85 1.083-8.151 2.421-12.901 4.015l-.057-.203c3.124-2.235 5.834-4.279 8.131-6.133z" style="fill:#fff;fill-opacity:1;fill-rule:nonzero;stroke:none" id="path310"/></g><g id="g312" transform="translate(352.8267,518.786)"><path d="m0 0c2.862-3.698 5.424-7.119 7.685-10.265l2.096-2.906 6.305 9.881-3.526.66C8.692-1.883 4.524-.977.057.089zM16.449-29.746-5.616 1.42l2.005 3.141L33.95-2.317l-2.516-3.944-11.251 2.169-7.954-12.465 6.708-9.29z" style="fill:#fff;fill-opacity:1;fill-rule:nonzero;stroke:none" id="path314"/></g><g id="g316" transform="translate(398.6456,547.8533)"><path d="m0 0-5.825-5.573-2.686 2.808 8.938 8.551L12.248-6.571c-.133-.396-.387-.914-.763-1.554s-.834-1.34-1.374-2.1c-.541-.761-1.153-1.542-1.837-2.343-.685-.801-1.396-1.555-2.135-2.262-2.19-2.095-4.408-3.644-6.655-4.647-2.247-1.004-4.46-1.5-6.641-1.489s-4.314.52-6.397 1.526c-2.084 1.005-4.046 2.47-5.885 4.392-1.997 2.088-3.491 4.292-4.482 6.613-.991 2.319-1.456 4.666-1.396 7.041.061 2.374.64 4.714 1.738 7.02 1.098 2.306 2.684 4.452 4.76 6.438.56.535 1.141 1.049 1.744 1.541.603.491 1.199.939 1.787 1.343.589.404 1.154.757 1.697 1.056.542.3 1.021.526 1.436.679l2.631-2.75c-1.008-.477-2.09-1.104-3.248-1.882-1.158-.778-2.233-1.642-3.226-2.592-1.452-1.389-2.626-2.933-3.524-4.633-.897-1.7-1.423-3.477-1.576-5.33-.153-1.854.113-3.739.8-5.654.686-1.917 1.895-3.778 3.624-5.586 1.693-1.77 3.403-3.06 5.13-3.871 1.727-.811 3.447-1.202 5.161-1.172 1.713.03 3.41.464 5.09 1.304 1.681.839 3.315 2.018 4.902 3.536.735.704 1.424 1.436 2.067 2.197.643.762 1.175 1.477 1.596 2.149z" style="fill:#fff;fill-opacity:1;fill-rule:nonzero;stroke:none" id="path318"/></g><g id="g320" transform="translate(421.0966,546.0599)"><path d="m0 0-19.178 29.713 3.62 2.336L3.62 2.336z" style="fill:#fff;fill-opacity:1;fill-rule:nonzero;stroke:none" id="path322"/></g><g id="g324" transform="translate(427.7559,579.7378)"><path d="m0 0c.385-.966.899-1.686 1.541-2.16.643-.474 1.377-.784 2.201-.929.824-.146 1.725-.176 2.703-.09.977.086 1.985.203 3.023.352 1.397.196 2.787.352 4.17.466 1.382.115 2.687.033 3.914-.246s2.351-.832 3.371-1.659c1.02-.826 1.862-2.074 2.528-3.744.678-1.702.941-3.3.788-4.793-.152-1.493-.64-2.863-1.463-4.111-.822-1.248-1.934-2.374-3.336-3.378-1.402-1.004-3.027-1.875-4.877-2.613-.851-.339-1.744-.633-2.678-.882-.935-.249-1.843-.445-2.725-.588s-1.696-.231-2.442-.262c-.746-.032-1.353-.009-1.821.071l-1.458 3.658c.707-.06 1.477-.065 2.312-.017.834.048 1.679.142 2.533.284.854.141 1.702.322 2.543.544.841.221 1.613.472 2.317.753 1.146.456 2.199.99 3.161 1.601.961.61 1.743 1.301 2.346 2.073.603.771.975 1.645 1.117 2.622.142.976-.025 2.062-.501 3.257-.392.982-.915 1.712-1.57 2.191-.656.478-1.402.793-2.24.943-.838.149-1.746.181-2.726.094C11.751-6.651 10.732-6.772 9.675-6.927 8.281-7.142 6.9-7.308 5.534-7.425 4.168-7.543 2.876-7.466 1.657-7.192c-1.218.273-2.324.809-3.316 1.609-.992.799-1.807 2.001-2.447 3.605-.665 1.67-.932 3.228-.801 4.674.131 1.447.561 2.77 1.291 3.972.729 1.201 1.698 2.26 2.907 3.179 1.208.917 2.582 1.683 4.121 2.296 1.751.698 3.451 1.181 5.098 1.449 1.648.268 3.21.383 4.686.345l1.477-3.707C13.086 10.261 11.497 10.168 9.905 9.951 8.313 9.734 6.687 9.304 5.027 8.661 3.783 8.166 2.756 7.6 1.947 6.965 1.138 6.329.53 5.641.124 4.901-.283 4.16-.491 3.375-.502 2.546-.513 1.716-.346.867.0.0" style="fill:#fff;fill-opacity:1;fill-rule:nonzero;stroke:none" id="path326"/></g><g id="g328" transform="translate(464.2275,565.3575)"><path d="m0 0-6.153 34.825 4.242.75 3.04-17.205.052.01 12.967 20.032 4.243.75L5.212 18.958 25.507 4.507l-4.242-.75L1.282 17.807 1.23 17.798 4.243.75z" style="fill:#fff;fill-opacity:1;fill-rule:nonzero;stroke:none" id="path330"/></g><g id="g332" transform="translate(503.4044,573.5128)"><path d="M0 0 18.079-1.375 17.785-5.249-4.59-3.547-1.908 31.715l21.4-1.628L19.197 26.213 2.093 27.514 1.227 16.129l15.207-1.157L16.139 11.098.932 12.255z" style="fill:#fff;fill-opacity:1;fill-rule:nonzero;stroke:none" id="path334"/></g><g id="g336" transform="translate(565.7572,589.2637)"><path d="m0 0c-1.871.648-3.723.958-5.554.931-1.831-.027-3.549-.42-5.152-1.18-1.604-.759-3.053-1.889-4.347-3.389s-2.342-3.408-3.143-5.722c-.797-2.298-1.167-4.402-1.112-6.314.055-1.912.48-3.626 1.277-5.142.796-1.516 1.932-2.828 3.407-3.936 1.475-1.108 3.233-2.015 5.272-2.721.556-.193 1.156-.369 1.8-.526.644-.158 1.3-.292 1.97-.403.669-.111 1.328-.199 1.975-.265s1.236-.097 1.766-.094l-1.246-3.596c-1.116-.043-2.358.057-3.729.299-1.371.242-2.739.599-4.104 1.072-2.781.963-5.11 2.204-6.99 3.722-1.879 1.519-3.297 3.255-4.252 5.208-.955 1.953-1.445 4.104-1.47 6.453s.421 4.848 1.338 7.495c.9 2.597 2.123 4.849 3.669 6.757 1.547 1.907 3.336 3.385 5.369 4.433 2.032 1.049 4.261 1.643 6.687 1.781 2.426.139 4.962-.25 7.61-1.168C1.74 3.453 2.42 3.185 3.083 2.89c.662-.295 1.287-.605 1.874-.929.587-.325 1.12-.654 1.602-.989.48-.334.883-.651 1.209-.95L6.522-3.574c-.896.683-1.904 1.345-3.023 1.984C2.38-.951 1.214-.42.0.0" style="fill:#fff;fill-opacity:1;fill-rule:nonzero;stroke:none" id="path338"/></g><g id="g340" transform="translate(570.418,551.3667)"><path d="M0 0 17.736 30.596l3.727-2.161L3.727-2.161z" style="fill:#fff;fill-opacity:1;fill-rule:nonzero;stroke:none" id="path342"/></g><g id="g344" transform="translate(607.8221,564.6827)"><path d="m0 0-8.495-9.776 3.212-2.791c.998-.867 1.877-1.573 2.64-2.119.763-.546 1.499-.976 2.208-1.288 1.431-.637 2.782-.842 4.052-.615 1.271.226 2.438.951 3.501 2.175.981 1.155 1.489 2.331 1.524 3.526.034 1.195-.321 2.385-1.066 3.569-.351.562-.831 1.166-1.438 1.81-.608.645-1.423 1.412-2.447 2.302zm-11.043-12.709-9.605-11.052-3.252 2.826 23.197 26.694L6.212-.25c1.169-1.016 2.124-1.923 2.866-2.719.742-.797 1.371-1.582 1.887-2.357 1.42-2.122 2.094-4.218 2.019-6.29-.074-2.071-.903-4.018-2.486-5.84-.936-1.077-1.948-1.892-3.033-2.442-1.086-.551-2.212-.867-3.381-.949-1.168-.082-2.361.056-3.579.414s-2.44.906-3.666 1.645l-.069-.08-2.016-18.277-3.252 2.826 1.385 18.195z" style="fill:#fff;fill-opacity:1;fill-rule:nonzero;stroke:none" id="path346"/></g><g id="g348" transform="translate(609.012,520.5942)"><path d="M0 0 27.792 21.87l2.664-3.386L16.726 7.68 16.759 7.638l23.782-1.97 2.664-3.385L19.172 4.358 16.018-20.355 13.354-16.97 16.302 7.279 16.269 7.32 2.664-3.386z" style="fill:#fff;fill-opacity:1;fill-rule:nonzero;stroke:none" id="path350"/></g><g id="g352" transform="translate(634.1443,489.6154)"><path d="M0 0 7.43-16.54 3.885-18.132-5.31 2.338 26.95 16.829 35.744-2.748 32.2-4.341 25.171 11.307 14.755 6.628 21.004-7.283 17.46-8.875 11.211 5.036z" style="fill:#fff;fill-opacity:1;fill-rule:nonzero;stroke:none" id="path354"/></g><g id="g356" transform="translate(676.3201,464.1685)"><path d="m0 0-30.999-5.477 3.003-16.996-3.826-.676-3.753 21.238L-.75 4.242z" style="fill:#fff;fill-opacity:1;fill-rule:nonzero;stroke:none" id="path358"/></g><g id="g360" transform="translate(500.1356,557.0253)"><path d="m0 0c-73.129.0-132.624-59.495-132.624-132.624S-73.129-265.248.0-265.248c73.129.0 132.624 59.495 132.624 132.624C132.624-59.495 73.129.0.0.0m0-268.527c-18.346.0-36.144 3.593-52.9 10.68-8.053 3.406-15.82 7.622-23.086 12.531-7.196 4.861-13.963 10.444-20.112 16.594-6.15 6.149-11.733 12.916-16.594 20.112-4.908 7.265-9.124 15.032-12.531 23.086-7.087 16.755-10.68 34.554-10.68 52.9s3.593 36.144 10.68 52.9c3.407 8.053 7.623 15.82 12.531 23.086 4.861 7.196 10.444 13.963 16.594 20.112 6.149 6.15 12.916 11.733 20.112 16.594 7.266 4.908 15.033 9.124 23.086 12.531 16.756 7.087 34.554 10.68 52.9 10.68 18.346.0 36.144-3.593 52.9-10.68 8.053-3.407 15.82-7.623 23.086-12.531 7.196-4.861 13.963-10.444 20.112-16.594 6.149-6.149 11.733-12.916 16.594-20.112 4.908-7.266 9.124-15.033 12.531-23.086 7.087-16.756 10.68-34.554 10.68-52.9s-3.593-36.145-10.68-52.9c-3.407-8.054-7.623-15.821-12.531-23.086-4.861-7.196-10.445-13.963-16.594-20.112-6.149-6.15-12.916-11.733-20.112-16.594-7.266-4.909-15.033-9.125-23.086-12.531-16.756-7.087-34.554-10.68-52.9-10.68" style="fill:#fff;fill-opacity:1;fill-rule:nonzero;stroke:none" id="path362"/></g><g id="g364" transform="translate(499.5258,622.8515)"><path d="m0 0c-108.383.0-196.559-88.521-196.559-197.328S-108.383-394.655.0-394.655s196.559 88.52 196.559 197.327C196.559-88.521 108.383.0.0.0m0-397.935c-13.558.0-27.108 1.372-40.274 4.076-12.832 2.636-25.454 6.57-37.515 11.691-11.841 5.028-23.263 11.251-33.946 18.497-10.581 7.176-20.532 15.417-29.574 24.495-9.043 9.078-17.252 19.066-24.401 29.688-7.217 10.725-13.416 22.19-18.424 34.077-5.101 12.107-9.019 24.776-11.645 37.657-2.694 13.216-4.059 26.817-4.059 40.426.0 13.61 1.365 27.211 4.059 40.427 2.626 12.88 6.544 25.55 11.645 37.657 5.008 11.887 11.207 23.352 18.424 34.076 7.149 10.623 15.358 20.611 24.401 29.689 9.042 9.077 18.993 17.319 29.574 24.495 10.683 7.246 22.105 13.469 33.946 18.497 12.061 5.121 24.683 9.054 37.515 11.69 13.166 2.705 26.716 4.076 40.274 4.076s27.108-1.371 40.274-4.076c12.832-2.636 25.453-6.569 37.515-11.69 11.841-5.028 23.263-11.251 33.946-18.497 10.581-7.176 20.532-15.418 29.574-24.495 9.043-9.078 17.252-19.066 24.401-29.689 7.217-10.724 13.416-22.189 18.424-34.076 5.101-12.107 9.019-24.777 11.645-37.657 2.693-13.216 4.059-26.817 4.059-40.427.0-13.609-1.366-27.21-4.059-40.426-2.626-12.881-6.544-25.55-11.645-37.657-5.008-11.887-11.207-23.352-18.424-34.077-7.149-10.622-15.358-20.61-24.401-29.688-9.042-9.078-18.993-17.319-29.574-24.495-10.683-7.246-22.105-13.469-33.946-18.497-12.062-5.121-24.683-9.055-37.515-11.691-13.166-2.704-26.716-4.076-40.274-4.076" style="fill:#fff;fill-opacity:1;fill-rule:nonzero;stroke:none" id="path366"/></g><g id="g368" transform="translate(476.8161,463.2178)"><path d="M0 0 45.306-.449 23.301 69.175zm51.142-4.769 13.773-43.576 59.694 42.849zM-82.244-3.448l61.239-45.557L-5.914-4.204zM-17.408-51.68 20.736-80.056 61.271-50.96 46.658-4.725-1.431-4.248zm-1.431-4.248-23.339-69.287 59.28 42.55zm43.164-26.798 61.429-45.697-23.131 73.186zm69.468-56.99-73.102 54.381-71.132-51.057 28.006 83.139L-95.289.943-4.483.044 23.43 82.91 49.791-.493l87.886-.87L66.266-52.621z" style="fill:#fff;fill-opacity:1;fill-rule:nonzero;stroke:none" id="path370"/></g><g id="g372" transform="translate(443.2339,268.9446)"><path d="m0 0c1.156-3.619 2.263-7.307 3.325-11.077l.147-.045c.788 3.344 1.704 6.734 2.75 10.15l5.509 17.986 4.167-1.276L5.546-18.06 1.405-16.792-6.074 6.106c-1.28 3.987-2.386 7.676-3.309 11.072l-.155.048c-.727-3.146-1.717-6.778-2.975-10.884l-5.284-17.252-4.141 1.268 10.352 33.798 4.089-1.252z" style="fill:#fff;fill-opacity:1;fill-rule:nonzero;stroke:none" id="path374"/></g><g id="g376" transform="translate(493.2007,261.6216)"><path d="m0 0c-.316-2.661-.991-5.052-2.017-7.192-1.026-2.132-2.346-3.919-3.961-5.353-1.616-1.444-3.476-2.495-5.582-3.162-2.114-.667-4.407-.849-6.889-.554-2.571.306-4.811 1.026-6.737 2.172-1.917 1.146-3.489 2.604-4.704 4.384-1.216 1.771-2.063 3.816-2.543 6.126-.478 2.319-.565 4.8-.249 7.461.318 2.679.995 5.088 2.03 7.227 1.036 2.139 2.358 3.936 3.965 5.38 1.606 1.436 3.466 2.487 5.589 3.152 2.114.666 4.425.846 6.925.549 2.553-.303 4.784-1.022 6.693-2.167 1.917-1.145 3.479-2.602 4.695-4.373 1.215-1.78 2.061-3.834 2.54-6.153C.234 5.178.318 2.679.0.0m-4.247.504c.281 2.366.215 4.481-.19 6.355-.404 1.875-1.076 3.481-2.016 4.819-.95 1.339-2.122 2.405-3.527 3.199-1.396.793-2.944 1.295-4.647 1.497-1.693.201-3.325.077-4.868-.367-1.551-.442-2.941-1.204-4.177-2.284-1.228-1.08-2.258-2.484-3.09-4.212-.832-1.727-1.393-3.768-1.674-6.133-.28-2.365-.213-4.472.2-6.347.415-1.867 1.097-3.465 2.038-4.803.949-1.34 2.122-2.397 3.528-3.181 1.396-.793 2.955-1.287 4.675-1.491 1.693-.201 3.315-.085 4.84.361 1.532.435 2.912 1.189 4.149 2.269 1.227 1.08 2.256 2.475 3.087 4.194.832 1.727 1.392 3.759 1.672 6.124" style="fill:#fff;fill-opacity:1;fill-rule:nonzero;stroke:none" id="path378"/></g><g id="g380" transform="translate(504.5621,275.7239)"><path d="m0 0 .422-12.931 4.256.139c1.317.043 2.442.125 3.377.246.926.111 1.76.301 2.492.551 1.481.508 2.612 1.277 3.391 2.304.778 1.027 1.141 2.357 1.089 3.971-.068 1.514-.495 2.719-1.283 3.623-.788.895-1.855 1.528-3.212 1.89-.638.169-1.4.288-2.286.341-.878.061-1.997.07-3.359.025zm.549-16.826.477-14.608-4.328-.141-1.153 35.329 9.17.299c1.551.051 2.869.04 3.955-.042s2.084-.23 2.984-.444c2.493-.587 4.415-1.67 5.766-3.242 1.36-1.562 2.075-3.561 2.154-5.969.046-1.433-.138-2.712-.561-3.854s-1.031-2.146-1.833-3.003c-.803-.856-1.773-1.565-2.91-2.126-1.137-.57-2.404-.999-3.803-1.288l.003-.109 10.953-14.744-4.329-.141L5.743-16.656z" style="fill:#fff;fill-opacity:1;fill-rule:nonzero;stroke:none" id="path382"/></g><g id="g384" transform="translate(554.1814,265.5825)"><path d="M0 0-7.817-1.987-8.777 1.79 3.237 4.844 7.449-11.725C7.137-12 6.662-12.326 6.022-12.702 5.38-13.07 4.64-13.454 3.792-13.856c-.84-.39-1.758-.772-2.748-1.126-.996-.365-1.98-.671-2.976-.925-2.93-.744-5.629-1.002-8.072-.767-2.451.233-4.62.892-6.515 1.974s-3.494 2.575-4.814 4.473c-1.321 1.899-2.31 4.142-2.966 6.721-.713 2.807-.932 5.46-.657 7.969.285 2.502 1.029 4.777 2.251 6.819 1.224 2.033 2.873 3.783 4.966 5.256 2.083 1.469 4.525 2.556 7.306 3.263.752.191 1.511.356 2.278.486.768.13 1.507.225 2.216.293.71.06 1.382.091 1.997.089.617-.011 1.147-.044 1.582-.11l.932-3.663c-1.105.063-2.357.043-3.742-.077-1.393-.121-2.751-.345-4.08-.683-1.95-.496-3.728-1.264-5.345-2.299-1.626-1.037-2.956-2.325-3.998-3.865s-1.737-3.309-2.084-5.315c-.346-2.005-.211-4.224.405-6.646.603-2.369 1.457-4.339 2.56-5.893 1.102-1.554 2.409-2.739 3.911-3.558 1.511-.817 3.2-1.272 5.069-1.373 1.875-.091 3.877.129 6.001.669.98.249 1.937.548 2.872.897.937.341 1.748.705 2.444 1.078z" style="fill:#fff;fill-opacity:1;fill-rule:nonzero;stroke:none" id="path386"/></g><g id="g388" transform="translate(574.7233,261.2081)"><path d="M0 0 16.835 6.739 18.284 3.12-2.572-5.228-15.708 27.589 4.235 35.571l1.449-3.618-15.923-6.373 4.245-10.604L8.169 20.645l1.448-3.618-14.163-5.669z" style="fill:#fff;fill-opacity:1;fill-rule:nonzero;stroke:none" id="path390"/></g></g></g><g id="g392"><g id="g394"><g id="g400"><g id="g402"><path d="m217.266 344.456 26.423-73.707c169.167 71.363 341.085 71.327 515.752.0v0l22.679 73.707c-97.15 40.577-192.221 60.252-285.386 60.248v0c-95.119-.003-188.249-20.52-279.468-60.248" style="fill:url(#linearGradient414);stroke:none" id="path416"/></g></g></g></g><g id="g418"><g id="g420"><g id="g426"><g id="g428"><path d="m243.689 270.749 11.612-1.418c160.98 67.499 324.047 68.104 489.256.0v0l14.884 1.418c-89.239 36.361-175.957 54.881-261.849 54.884v0c-84.871.002-168.936-18.075-253.903-54.884" style="fill:url(#linearGradient436);stroke:none" id="path438"/></g></g></g></g><g id="g440"><g id="g442"><g id="g448"><g id="g450"><path d="m362.344 382.845c-47.113-10.303-94.81-26.076-141.996-46.984v0l1.155-3.224c185.074 82.003 372.677 82.003 556.981.002v0l1.006 3.27c-45.65 20.311-91.729 35.732-137.399 46.036v0c-46.139 10.407-92.947 15.785-139.125 15.983v0c-.939.004-1.876.006-2.816.006v0c-45.711.0-92.063-5.086-137.806-15.089" style="fill:url(#linearGradient464);stroke:none" id="path466"/></g></g></g></g><g id="g468"><g id="g470"><g id="g476"><g id="g478"><path d="m239.611 282.127 1.275-3.556c173.316 71.731 348.118 71.515 520.763-.645v0l1.006 3.267c-86.006 35.947-173.124 54.328-259.24 54.759v0c-1.033.005-2.061.007-3.094.007v0c-86.69.0-173.83-17.875-260.71-53.832" style="fill:url(#linearGradient492);stroke:none" id="path494"/></g></g></g></g><g id="g496"><g id="g498" clip-path="url(#clipPath502)"><g id="g504" transform="translate(288.9185,338.3857)"><path d="M0 0-5.79-4.512-7.716 1.38.752 8.77 4.208 9.899 14.613-21.922 7.887-24.121z" style="fill:#000;fill-opacity:1;fill-rule:nonzero;stroke:none" id="path506"/></g><g id="g508" transform="translate(311.3003,346.3613)"><path d="m0 0c-.733-1.317-.89-2.711-.471-4.182C-.07-5.589.786-6.648 2.095-7.357c1.31-.71 2.685-.86 4.124-.45 1.471.419 2.577 1.271 3.319 2.556s.91 2.641.504 4.064C9.624.283 8.756 1.386 7.439 2.118c-1.316.734-2.71.89-4.18.472C1.819 2.18.733 1.316.0.0m10.914 7.649c2.933-1.541 4.828-3.813 5.683-6.817.677-2.378.691-4.92.041-7.626l-3.803-16.939-7.157-2.038 3.115 13.826c-.686-.5-1.593-.91-2.719-1.231-2.816-.803-5.536-.486-8.161.948-2.624 1.435-4.328 3.529-5.112 6.283-.861 3.019-.417 5.962 1.329 8.827 1.747 2.866 4.24 4.76 7.478 5.681 3.27.932 6.371.627 9.306-.914" style="fill:#000;fill-opacity:1;fill-rule:nonzero;stroke:none" id="path510"/></g><g id="g512" transform="translate(338.1016,330.3408)"><path d="m0 0 9.059 16.608c.601 1.062 1.051 1.895 1.351 2.5.3.607.556 1.344.768 2.213s.231 1.676.054 2.42c-.284 1.202-.972 2.113-2.063 2.734C8.079 27.094 6.884 27.25 5.586 26.943 4.193 26.614 3.153 25.87 2.466 24.714c-.687-1.157-.855-2.48-.503-3.968l-6.696-1.583c-.752 3.181-.266 5.966 1.459 8.355 1.725 2.388 4.273 3.981 7.645 4.779 3.244.767 6.144.521 8.698-.738 2.555-1.26 4.153-3.251 4.797-5.974.416-1.757.395-3.399-.063-4.928-.457-1.529-1.226-3.258-2.308-5.184L9.575 4.671 22.99 7.844l1.392-5.888L.854-3.609z" style="fill:#000;fill-opacity:1;fill-rule:nonzero;stroke:none" id="path514"/></g><g id="g516" transform="translate(381.147,343.0312)"><path d="M0 0C.771 1.131 1.028 2.383.769 3.757S-.183 6.196-1.31 6.952c-1.127.756-2.378 1.004-3.752.745-1.375-.259-2.457-.947-3.248-2.064C-9.1 4.517-9.382 3.268-9.155 1.887c.259-1.374.961-2.446 2.107-3.214 1.146-.77 2.423-1.021 3.829-.756C-1.845-1.824-.772-1.13.0.0m-3.621 14.671c.584.854.776 1.809.578 2.864-.19 1.007-.712 1.802-1.567 2.386-.854.583-1.805.776-2.852.579s-1.87-.725-2.47-1.582c-.599-.857-.804-1.79-.614-2.797.198-1.055.733-1.872 1.604-2.453.87-.58 1.829-.772 2.876-.575 1.046.197 1.862.723 2.445 1.578m-7.334-21.414c-2.677 1.564-4.282 3.844-4.813 6.838-.338 1.971-.148 3.837.572 5.593.72 1.758 1.926 3.152 3.618 4.182-1.434.408-2.623 1.145-3.568 2.207-.945 1.064-1.54 2.333-1.785 3.81-.367 2.297.258 4.429 1.872 6.396 1.616 1.968 3.813 3.214 6.594 3.738s5.277.146 7.487-1.134 3.541-3.118 3.993-5.516C3.563 16.463 2.646 14.04.264 12.102 2.231 11.761 3.864 10.89 5.163 9.487 6.461 8.085 7.294 6.409 7.662 4.46c.547-2.908-.119-5.587-1.999-8.034C3.782-6.022 1.22-7.552-2.024-8.163-5.3-8.78-8.277-8.307-10.955-6.743" style="fill:#000;fill-opacity:1;fill-rule:nonzero;stroke:none" id="path518"/></g><g id="g520" transform="translate(420.0288,351.3232)"><path d="m0 0-14.689-1.907-.749 5.76 14.69 1.907z" style="fill:#000;fill-opacity:1;fill-rule:nonzero;stroke:none" id="path522"/></g><g id="g524" transform="translate(442.9751,370.5723)"><path d="m0 0c-.985-1.14-1.423-2.473-1.312-3.998.106-1.46.729-2.671 1.867-3.632 1.138-.961 2.454-1.388 3.946-1.278 1.526.11 2.782.72 3.77 1.827.988 1.107 1.428 2.399 1.321 3.876C9.48-1.68 8.855-.424 7.715.562c-1.14.985-2.472 1.422-3.998 1.311C2.225 1.765.985 1.14.0.0m12.242 5.27c2.559-2.106 3.951-4.716 4.178-7.832.179-2.465-.325-4.958-1.512-7.474L7.74-25.849.317-26.389 6.18-13.484c-.774-.35-1.745-.568-2.913-.653-2.921-.212-5.52.652-7.797 2.59-2.278 1.939-3.521 4.335-3.729 7.191-.227 3.131.805 5.922 3.098 8.373 2.293 2.45 5.119 3.797 8.477 4.042 3.392.246 6.367-.684 8.926-2.789" style="fill:#000;fill-opacity:1;fill-rule:nonzero;stroke:none" id="path526"/></g><g id="g528" transform="translate(468.647,348.1143)"><path d="M0 0C-2.484 1.934-3.765 4.348-3.843 7.241l7.034.654c.201-1.394.821-2.521 1.86-3.379 1.04-.859 2.308-1.268 3.803-1.228 1.431.039 2.648.605 3.651 1.697 1.004 1.092 1.487 2.354 1.448 3.785-.04 1.495-.591 2.765-1.652 3.81s-2.307 1.549-3.738 1.51C6.629 14.038 5.072 13.272 3.892 11.793l-6.311 2.393 2.13 16.942 17.873.481.155-5.73L5.254 25.543 4.525 18.179c1.335 1.175 3.011 1.781 5.027 1.818 3.088.084 5.772-.959 8.051-3.126 2.278-2.167 3.46-4.815 3.544-7.944C21.231 5.797 20.08 3.09 17.693.806c-2.386-2.285-5.311-3.474-8.774-3.568C5.457-2.854 2.484-1.935.0.0" style="fill:#000;fill-opacity:1;fill-rule:nonzero;stroke:none" id="path530"/></g><g id="g532" transform="translate(521.6611,376.2256)"><path d="M0 0C.439.414.672.938.696 1.572.72 2.174.52 2.698.098 3.146s-.951.684-1.584.708C-2.12 3.88-2.661 3.685-3.108 3.271c-.449-.415-.684-.922-.706-1.524C-3.84 1.113-3.645.573-3.23.125c.414-.447.937-.684 1.572-.708C-.992-.608-.439-.414.0.0m-6.009-2.245c-1.15 1.2-1.695 2.581-1.635 4.141.061 1.561.71 2.875 1.949 3.942 1.238 1.066 2.685 1.568 4.343 1.504C.34 7.276 1.757 6.664 2.9 5.504c1.144-1.159 1.685-2.52 1.624-4.08C4.463-.169 3.816-1.512 2.586-2.604 1.354-3.695-.106-4.208-1.797-4.143c-1.658.065-3.062.697-4.212 1.898m7.99-20.97c1.385 1.297 2.115 2.898 2.189 4.799.073 1.902-.53 3.541-1.812 4.918-1.282 1.376-2.874 2.102-4.775 2.176-1.902.073-3.554-.527-4.954-1.799-1.4-1.273-2.138-2.859-2.212-4.762-.073-1.901.538-3.554 1.835-4.955 1.297-1.401 2.896-2.139 4.798-2.213 1.902-.073 3.546.538 4.931 1.836m-14.96-3.828c-2.464 2.546-3.625 5.689-3.48 9.428.144 3.689 1.551 6.708 4.222 9.054 2.672 2.347 5.625 3.457 8.86 3.332 1.836-.072 3.543-.569 5.119-1.493 1.575-.924 2.654-2.097 3.234-3.52l.146-.006.4 4.038 6.096-.236-.951-24.53-6.096.237-.087 4.056-.146.006c-.69-1.405-1.872-2.504-3.547-3.293-1.675-.79-3.398-1.15-5.17-1.082-3.267.127-6.134 1.464-8.6 4.009" style="fill:#000;fill-opacity:1;fill-rule:nonzero;stroke:none" id="path534"/></g><g id="g536" transform="translate(541.3135,369.1602)"><path d="M0 0 6.057-.482 6.032-6.013 6.129-6.021c.851 1.875 2.103 3.256 3.757 4.144C11.54-.988 13.3-.603 15.167-.719L14.679-6.848C12.052-6.639 9.957-7.23 8.394-8.624c-1.563-1.393-2.445-3.338-2.643-5.835l-.842-10.556-6.858.546z" style="fill:#000;fill-opacity:1;fill-rule:nonzero;stroke:none" id="path538"/></g><g id="g540" transform="translate(584.9365,349.4209)"><path d="M0 0-14.689 1.853-13.963 7.612.727 5.76z" style="fill:#000;fill-opacity:1;fill-rule:nonzero;stroke:none" id="path542"/></g><g id="g544" transform="translate(600.5254,341.416)"><path d="m0 0 14.906 11.645c.974.735 1.718 1.322 2.234 1.758.514.437 1.043 1.012 1.583 1.726.539.713.876 1.446 1.009 2.198.217 1.218-.052 2.326-.807 3.328s-1.789 1.619-3.103 1.853c-1.408.251-2.658-.019-3.748-.808-1.091-.789-1.769-1.935-2.037-3.44l-6.772 1.204c.572 3.219 2.124 5.581 4.655 7.089 2.531 1.507 5.502 1.957 8.912 1.35 3.282-.584 5.846-1.961 7.689-4.131 1.844-2.169 2.522-4.631 2.032-7.385C26.236 14.609 25.565 13.11 24.538 11.889c-1.026-1.221-2.419-2.501-4.177-3.841L10.642.485l13.569-2.413-1.06-5.957-23.8 4.235z" style="fill:#000;fill-opacity:1;fill-rule:nonzero;stroke:none" id="path546"/></g><g id="g548" transform="translate(646.5996,336.0439)"><path d="m0 0c1.342.869 2.201 2.161 2.58 3.876l2.201 9.956c.382 1.731.168 3.266-.644 4.603-.813 1.336-2 2.177-3.565 2.523-1.563.346-3.004.085-4.319-.781-1.316-.867-2.165-2.166-2.548-3.897l-2.2-9.956C-8.878 4.593-8.647 3.056-7.804 1.712-6.96.368-5.775-.473-4.251-.81-2.759-1.14-1.342-.87.0.0m-13.595-1.317c-1.884 2.963-2.449 6.153-1.694 9.567l2.037 9.219c.754 3.414 2.608 6.055 5.562 7.927 2.953 1.87 6.152 2.424 9.598 1.663 3.446-.762 6.113-2.614 8.004-5.554 1.89-2.942 2.457-6.118 1.703-9.532L9.577 2.755C8.823-.659 6.967-3.313 4.008-5.208 1.05-7.103-2.153-7.669-5.599-6.907c-3.446.761-6.111 2.625-7.996 5.59" style="fill:#000;fill-opacity:1;fill-rule:nonzero;stroke:none" id="path550"/></g><g id="g552" transform="translate(660.0859,329.2373)"><path d="m0 0 15.803 10.395c1.03.653 1.819 1.176 2.369 1.57.549.393 1.121.924 1.718 1.591.595.668.991 1.371 1.185 2.109.315 1.195.137 2.323-.535 3.383-.671 1.059-1.651 1.759-2.94 2.098-1.385.365-2.652.198-3.802-.5-1.152-.698-1.921-1.786-2.311-3.264l-6.652 1.752c.832 3.161 2.571 5.389 5.217 6.686 2.644 1.296 5.642 1.503 8.992.621 3.224-.848 5.667-2.428 7.328-4.741 1.661-2.312 2.136-4.821 1.424-7.526-.46-1.746-1.251-3.186-2.373-4.32C24.301 8.721 22.809 7.558 20.947 6.366L10.646-.382 23.974-3.891 22.434-9.74-.944-3.586z" style="fill:#000;fill-opacity:1;fill-rule:nonzero;stroke:none" id="path554"/></g><g id="g556" transform="translate(690.582,319.5459)"><path d="M0 0C-1.518 2.533-1.812 5.333-.881 8.399L5.726 6.396c-.425-1.401-.322-2.728.309-3.982C6.666 1.161 7.729.308 9.223-.146c1.588-.481 2.986-.395 4.195.257 1.209.654 2.023 1.673 2.444 3.058.434 1.432.291 2.741-.427 3.928-.72 1.187-1.889 2.026-3.507 2.516l-3.829 1.161 1.465 4.833 3.829-1.161c1.214-.368 2.373-.273 3.477.284 1.104.558 1.828 1.405 2.172 2.541.359 1.183.253 2.29-.318 3.321-.571 1.032-1.51 1.746-2.818 2.142-1.245.377-2.385.303-3.42-.224-1.035-.528-1.725-1.36-2.07-2.495L3.88 21.997c.821 2.708 2.543 4.604 5.166 5.686 2.622 1.083 5.514 1.145 8.673.186 3.035-.92 5.335-2.472 6.899-4.654 1.565-2.183 1.979-4.487 1.242-6.915-.5-1.651-1.414-2.996-2.741-4.038-1.327-1.042-2.905-1.635-4.732-1.778 1.77-1.166 3.011-2.621 3.722-4.366.712-1.746.768-3.606.168-5.583-.84-2.77-2.617-4.722-5.331-5.852-2.714-1.132-5.837-1.162-9.37-.09C4.043-4.336 1.518-2.533.0.0" style="fill:#000;fill-opacity:1;fill-rule:nonzero;stroke:none" id="path558"/></g></g></g></g></svg>